<svg xmlns="http://www.w3.org/2000/svg" width="185.4" height="198.643" viewBox="0 0 185.4 198.643">
  <g id="idea" transform="translate(-2 -1)">
    <path id="Path_5" data-name="Path 5" d="M60.971,7.016A55.355,55.355,0,0,0,8,59.988,55.62,55.62,0,0,0,23.163,97.73a30.194,30.194,0,0,1,11.323,21.851,6.621,6.621,0,0,0,6.621,6.621H80.836a6.621,6.621,0,0,0,6.621-6.621,29.532,29.532,0,0,1,11.19-21.718,52.111,52.111,0,0,0,15.3-37.875,54.1,54.1,0,0,0-16.156-38.6A50.786,50.786,0,0,0,60.971,7.016ZM89.708,88.327a45.489,45.489,0,0,0-14.9,24.632H47.133A46.35,46.35,0,0,0,32.566,88.394,42.443,42.443,0,0,1,21.243,59.988,41.649,41.649,0,0,1,60.971,20.259,37.279,37.279,0,0,1,88.318,30.853,40.788,40.788,0,0,1,100.7,59.988a39.265,39.265,0,0,1-11.19,28.34Z" transform="translate(33.729 33.712)" fill="#8740dd"/>
    <path id="Path_6" data-name="Path 6" d="M58.35,26H18.621a6.621,6.621,0,1,0,0,13.243H58.35A6.621,6.621,0,0,0,58.35,26Z" transform="translate(56.214 140.536)" fill="#8740dd"/>
    <path id="Path_7" data-name="Path 7" d="M46.107,29H19.621a6.621,6.621,0,0,0,0,13.243H46.107a6.621,6.621,0,0,0,0-13.243Z" transform="translate(61.836 157.4)" fill="#8740dd"/>
    <path id="Path_8" data-name="Path 8" d="M21.621,27.486a6.621,6.621,0,0,0,6.621-6.621V7.621A6.621,6.621,0,0,0,15,7.621V20.864A6.621,6.621,0,0,0,21.621,27.486Z" transform="translate(73.079)" fill="#8740dd"/>
    <path id="Path_9" data-name="Path 9" d="M21.864,14H8.621a6.621,6.621,0,0,0,0,13.243H21.864a6.621,6.621,0,0,0,0-13.243Z" transform="translate(0 73.079)" fill="#8740dd"/>
    <path id="Path_10" data-name="Path 10" d="M45.864,14H32.621a6.621,6.621,0,1,0,0,13.243H45.864a6.621,6.621,0,0,0,0-13.243Z" transform="translate(134.914 73.079)" fill="#8740dd"/>
    <path id="Path_11" data-name="Path 11" d="M43.471,6.735a6.621,6.621,0,0,0-9.336,0l-9.4,9.336a6.649,6.649,0,0,0,9.4,9.4l9.336-9.4a6.621,6.621,0,0,0,0-9.336Z" transform="translate(116.781 21.413)" fill="#8740dd"/>
    <path id="Path_12" data-name="Path 12" d="M26.19,25.19a6.621,6.621,0,0,0,0-9.4l-9.4-9.336a6.621,6.621,0,0,0-9.336,9.336l9.336,9.4a6.715,6.715,0,0,0,9.4,0Z" transform="translate(21.696 21.696)" fill="#8740dd"/>
  </g>
</svg>
